<svg width="80" height="80" viewBox="0 0 80 80" fill="none" xmlns="http://www.w3.org/2000/svg">
<path opacity="0.3" d="M80 40C80 62.0914 62.0914 80 40 80C17.9086 80 0 62.0914 0 40C0 17.9086 17.9086 0 40 0C62.0914 0 80 17.9086 80 40ZM10.9071 40C10.9071 56.0675 23.9325 69.0929 40 69.0929C56.0675 69.0929 69.0929 56.0675 69.0929 40C69.0929 23.9325 56.0675 10.9071 40 10.9071C23.9325 10.9071 10.9071 23.9325 10.9071 40Z" fill="#2F2E30"/>
<circle cx="40" cy="40" r="29" fill="black"/>
<path d="M40 59C50.4934 59 59 50.4934 59 40C59 29.5066 50.4934 21 40 21C29.5066 21 21 29.5066 21 40C21 50.4934 29.5066 59 40 59Z" stroke="#FAFAFA" stroke-width="2.75" stroke-linecap="round" stroke-linejoin="round"/>
<path d="M45.6 34.0017C45.2377 33.3734 44.7113 32.8554 44.0772 32.5032C43.443 32.151 42.725 31.9779 42 32.0023H38C36.9391 32.0023 35.9217 32.4236 35.1716 33.1735C34.4214 33.9234 34 34.9406 34 36.0011C34 37.0617 34.4214 38.0788 35.1716 38.8288C35.9217 39.5787 36.9391 40 38 40H42C43.0609 40 44.0783 40.4213 44.8284 41.1712C45.5786 41.9212 46 42.9383 46 43.9989C46 45.0594 45.5786 46.0766 44.8284 46.8265C44.0783 47.5764 43.0609 47.9977 42 47.9977H38C37.275 48.0221 36.557 47.849 35.9228 47.4968C35.2887 47.1446 34.7623 46.6266 34.4 45.9983" stroke="#FAFAFA" stroke-width="2.75" stroke-linecap="round" stroke-linejoin="round"/>
<path d="M40 27V31.3333M40 48.6667V53" stroke="#FAFAFA" stroke-width="2.75" stroke-linecap="round" stroke-linejoin="round"/>
</svg>
